# xmcd
#
# Track frame offsets:
#	150
#	20673
#	35421
#	49644
#	62667
#	75315
#	91938
#	104811
#	121659
#	133782
#	149805
#	170328
#	185076
#	199299
#	212322
#	225045
#	241743
#	254691
#	271539
#	283737
#
# Disc length: 3996 seconds
#
# Revision: 1
# Processed by: cddbd v1.5.2PL0 Copyright (c) Steve Scherf et al.
# Submitted via: audiograbber 1.83.01
#
DISCID=170f9a14
DTITLE=Julio Cesar e Marlene - Dia de Sol
DYEAR=2007
DGENRE=Gospel
TTITLE0=Dia de Sol
TTITLE1=Segredo
TTITLE2=Jerusalem
TTITLE3=Juntinho de Deus
TTITLE4=Tapera Velha
TTITLE5=No muito te colocarei
TTITLE6=Eleita de Deus
TTITLE7=Coragem Irmão
TTITLE8=Desde Criança
TTITLE9=Companheiro
TTITLE10=Dia de Sol PB
TTITLE11=Segredo PB
TTITLE12=Jerusalem PB
TTITLE13=Juntinho de Deus PB
TTITLE14=Tapera Velha PB
TTITLE15=No muito te colocarei PB
TTITLE16=Eleita de Deus PB
TTITLE17=Coragem Irmão PB
TTITLE18=Desde Criança PB
TTITLE19=Companheiro PB
EXTD=
EXTT0=
EXTT1=
EXTT2=
EXTT3=
EXTT4=
EXTT5=
EXTT6=
EXTT7=
EXTT8=
EXTT9=
EXTT10=
EXTT11=
EXTT12=
EXTT13=
EXTT14=
EXTT15=
EXTT16=
EXTT17=
EXTT18=
EXTT19=
PLAYORDER=
